<svg xmlns="http://www.w3.org/2000/svg" width="32" height="32" viewBox="0 0 32 32">
    <g fill="none" fill-rule="evenodd">
        <g>
            <g>
                <g>
                    <path fill="#242424" fill-rule="nonzero" d="M21.85 4c1.05 0 1.9.85 1.9 1.9v12.2c0 1.05-.85 1.9-1.9 1.9H1.9C.85 20 0 19.15 0 18.1V5.9C0 4.85.85 4 1.9 4h19.95zm0 1H1.9c-.459 0-.837.343-.893.787L1 5.9v12.2c0 .459.343.837.787.893L1.9 19h19.95c.459 0 .837-.343.893-.787l.007-.113V5.9c0-.459-.343-.837-.787-.893L21.85 5z" transform="translate(-360 -50) translate(360 50) translate(3 7)"/>
                    <path fill="#242424" d="M24.786 15c-.303 0-.549-.247-.549-.553 0-.306.246-.447.55-.447h.567c.595 0 1.233-.598 1.233-1.18V2.213c0-.61-.627-1.248-1.233-1.248H7.864c-.588 0-1.214.638-1.214 1.248v.53c0 .305-.098.552-.4.552-.304 0-.55-.247-.55-.553v-.53C5.7.993 6.67 0 7.864 0h17.49c1.21 0 2.196.992 2.196 2.212V12.82c0 1.181-1.006 2.179-2.196 2.179h-.568zM8.38 14H3.32c-.176 0-.32-.223-.32-.5s.144-.5.32-.5h5.06c.176 0 .32.223.32.5s-.144.5-.32.5M5.599 16H3.25C3.112 16 3 15.777 3 15.5s.112-.5.251-.5H5.6c.139 0 .251.223.251.5s-.112.5-.251.5" transform="translate(-360 -50) translate(360 50) translate(3 7)"/>
                    <g fill="#0D5CB6">
                        <path d="M2.375 5C1.088 5 0 3.856 0 2.5 0 1.146 1.088 0 2.375 0 3.685 0 4.75 1.122 4.75 2.5 4.75 3.88 3.685 5 2.375 5z" transform="translate(-360 -50) translate(360 50) translate(3 7) translate(11.4 12)"/>
                        <path d="M6.175 5C4.888 5 3.8 3.856 3.8 2.5 3.8 1.146 4.888 0 6.175 0 7.485 0 8.55 1.122 8.55 2.5 8.55 3.88 7.485 5 6.175 5z" opacity=".5" transform="translate(-360 -50) translate(360 50) translate(3 7) translate(11.4 12)"/>
                    </g>
                </g>
            </g>
        </g>
    </g>
</svg>
