<svg xmlns="http://www.w3.org/2000/svg" width="32" height="32" viewBox="0 0 32 32">
    <g fill="none" fill-rule="evenodd">
        <g>
            <g>
                <g transform="translate(-256 -50) translate(256 50) translate(2 7)">
                    <path fill="#242424" fill-rule="nonzero" d="M25.305 0C26.793 0 28 1.207 28 2.695v12.61C28 16.793 26.793 18 25.305 18H2.695C1.207 18 0 16.793 0 15.305V2.695C0 1.207 1.207 0 2.695 0h22.61zm0 1H2.695c-.887 0-1.615.681-1.689 1.549L1 2.695v12.61c0 .887.681 1.615 1.549 1.689l.146.006h22.61c.887 0 1.615-.681 1.689-1.549l.006-.146V2.695c0-.887-.681-1.615-1.549-1.689L25.305 1z"/>
                    <path fill="#000" fill-rule="nonzero" d="M6.146 14.214l.53-1.606h2.286l.53 1.606h1.171L8.458 8H7.205L5 14.214h1.146zm2.553-2.463H6.934l.87-2.653h.03l.865 2.653zm5.255 2.463V8.94h1.856V8h-4.824v.939h1.86v5.275h1.108zm3.617 0v-4.41h.03l1.796 4.41h.758l1.796-4.41h.03v4.41h1V8h-1.284l-1.904 4.742h-.034L17.855 8h-1.287v6.214h1.003z"/>
                    <rect width="5" height="3" x="20" y="3" fill="#0D5CB6" rx="1"/>
                </g>
            </g>
        </g>
    </g>
</svg>
