<svg width="40" height="40" viewBox="0 0 40 40" fill="none" xmlns="http://www.w3.org/2000/svg">
<path d="M27.5946 7.50003C26.4468 7.49933 25.3246 7.83905 24.3699 8.47622C23.4152 9.1134 22.671 10.0194 22.2313 11.0796C21.7916 12.1398 21.6762 13.3067 21.8997 14.4325C22.1232 15.5583 22.6756 16.5925 23.487 17.4043C24.2984 18.2161 25.3323 18.7691 26.458 18.9932C27.5837 19.2173 28.7506 19.1026 29.811 18.6634C30.8715 18.2243 31.7779 17.4805 32.4155 16.5262C33.0532 15.5718 33.3936 14.4498 33.3935 13.302C33.3939 12.5402 33.2442 11.7858 32.9529 11.0819C32.6617 10.378 32.2346 9.73839 31.6961 9.19959C31.1576 8.66078 30.5182 8.23336 29.8144 7.94174C29.1107 7.65013 28.3564 7.50003 27.5946 7.50003V7.50003ZM27.5946 15.8228C27.0958 15.8223 26.6084 15.674 26.1939 15.3966C25.7794 15.1191 25.4565 14.725 25.2659 14.264C25.0754 13.803 25.0259 13.2959 25.1236 12.8068C25.2212 12.3177 25.4617 11.8685 25.8147 11.5161C26.1676 11.1636 26.6171 10.9237 27.1064 10.8267C27.5957 10.7298 28.1027 10.78 28.5634 10.9712C29.0241 11.1623 29.4178 11.4858 29.6946 11.9007C29.9715 12.3156 30.1192 12.8032 30.1189 13.302C30.1178 13.9706 29.8517 14.6114 29.3788 15.0839C28.9059 15.5565 28.2649 15.8222 27.5964 15.8228" fill="#AD2070"/>
<path d="M10.1468 19.1045V11.5817C10.1468 11.1404 10.5357 10.7782 11.0152 10.7782C11.4946 10.7782 11.8742 11.1373 11.8791 11.5773V19.1045H15.4187V11.5817V11.5768C15.4187 11.1373 15.8067 10.7777 16.2835 10.7777C16.7603 10.7777 17.1488 11.14 17.1488 11.5813V19.1045H20.6858V11.5817C20.6858 9.33264 18.7115 7.50046 16.2835 7.50046C15.3441 7.49718 14.4261 7.78163 13.6531 8.31555C12.8769 7.78235 11.9569 7.49791 11.0152 7.50001C8.58809 7.50001 6.6125 9.3322 6.6125 11.5813V19.1045H10.1468Z" fill="#AD2070"/>
<path d="M27.5947 20.8896C26.4473 20.8891 25.3255 21.2288 24.3711 21.8658C23.4168 22.5028 22.6728 23.4085 22.2332 24.4683C21.7935 25.5282 21.6781 26.6946 21.9013 27.82C22.1246 28.9455 22.6766 29.9795 23.4875 30.7913C24.2984 31.6031 25.3318 32.1561 26.457 32.3806C27.5822 32.6051 28.7488 32.4909 29.8091 32.0524C30.8694 31.6139 31.7759 30.8708 32.4139 29.9172C33.0519 28.9635 33.3928 27.8421 33.3935 26.6947C33.3944 25.9327 33.245 25.1779 32.9539 24.4737C32.6629 23.7694 32.2358 23.1294 31.6973 22.5902C31.1587 22.0511 30.5192 21.6234 29.8152 21.3316C29.1113 21.0398 28.3567 20.8896 27.5947 20.8896V20.8896ZM27.5947 29.219C27.0948 29.2195 26.606 29.0716 26.1902 28.7941C25.7743 28.5167 25.4502 28.1221 25.2587 27.6604C25.0672 27.1986 25.0169 26.6904 25.1143 26.2001C25.2118 25.7098 25.4524 25.2594 25.8059 24.906C26.1594 24.5525 26.6098 24.3118 27.1001 24.2144C27.5904 24.117 28.0986 24.1672 28.5603 24.3587C29.0221 24.5502 29.4166 24.8744 29.6941 25.2902C29.9715 25.706 30.1194 26.1948 30.119 26.6947C30.1179 27.3636 29.8519 28.0048 29.3791 28.4779C28.9063 28.951 28.2653 29.2175 27.5964 29.219" fill="#AD2070"/>
<path d="M10.1468 32.4945V24.9753C10.1468 24.5313 10.5357 24.1708 11.0152 24.1708C11.4947 24.1708 11.8743 24.5291 11.8791 24.9699V32.4945H15.4188V24.9753C15.4188 24.9753 15.4188 24.9753 15.4188 24.9717C15.4188 24.5278 15.8068 24.1726 16.2836 24.1726C16.7604 24.1726 17.1488 24.5309 17.1488 24.977V32.4945H20.6858V24.9753C20.6858 22.7253 18.7115 20.8909 16.2836 20.8909C15.3435 20.886 14.4248 21.1716 13.6532 21.7087C12.8788 21.1728 11.9587 20.8874 11.017 20.8909C8.58991 20.8909 6.61433 22.7249 6.61433 24.9753V32.4945H10.1468Z" fill="#AD2070"/>
</svg>
