<svg xmlns="http://www.w3.org/2000/svg" width="32" height="32" viewBox="0 0 32 32">
    <g fill="none" fill-rule="evenodd">
        <g fill-rule="nonzero">
            <g>
                <g>
                    <path fill="#118ACB" d="M4.84 4.262l19.043-2.784C22.819.557 21.433 0 19.92 0H6.055C2.706 0 0 2.713 0 6.055V19.92c0 3.006 2.192 5.505 5.062 5.976L2.55 7.354c-.214-1.485.828-2.877 2.292-3.092z" transform="translate(-464 -50) translate(464 50) translate(3 3)"/>
                    <path fill="#FFF" d="M23.883 1.478L4.84 4.262c-1.464.215-2.506 1.607-2.292 3.092l2.513 18.542c.321.05.657.086.993.086H19.92c3.349 0 6.055-2.713 6.055-6.055V6.055c0-1.828-.807-3.463-2.092-4.577z" transform="translate(-464 -50) translate(464 50) translate(3 3)"/>
                    <path fill="#C7C7C7" stroke="#C7C7C7" stroke-width=".1" d="M23.883 1.478l-.065.014c1.307 1.143 2.092 2.828 2.092 4.563v13.844c0 3.312-2.699 6.011-6.011 6.011H6.047c-.314 0-.678-.035-1-.085l.008.071c.336.057.657.086.985.086h13.844c3.356 0 6.083-2.728 6.083-6.083V6.055c.008-1.771-.75-3.42-2.084-4.577z" transform="translate(-464 -50) translate(464 50) translate(3 3)"/>
                    <g>
                        <g fill="#118ACB">
                            <path d="M8.768 2.556c-.122-.121-.257-.186-.45-.186-.257 0-.45.122-.564.379-.257-.307-.614-.45-1.064-.45-.543 0-.992.214-1.37.614-.38.428-.543.921-.543 1.514 0 .592.185 1.106.542 1.513.379.429.828.614 1.371.614.45 0 .8-.142 1.064-.45.121.258.307.379.564.379.185 0 .328-.071.45-.186.121-.114.164-.257.164-.45V2.942c.021-.1-.05-.265-.164-.386zM7.49 5.176c-.143.186-.357.286-.614.286s-.472-.093-.614-.286c-.143-.185-.236-.428-.236-.735 0-.286.071-.521.236-.707.142-.186.357-.285.614-.285s.47.092.614.285c.142.186.235.428.235.707-.021.286-.093.55-.235.735zM10.346 6.333c-.122.121-.257.186-.45.186-.186 0-.329-.072-.45-.186-.121-.121-.164-.257-.164-.45V.685c0-.164.05-.307.164-.45.121-.12.257-.185.45-.185.185 0 .328.071.45.186.12.121.164.257.164.45v5.197c0 .193-.043.336-.164.45zM14.43 2.934c-.4-.428-.9-.614-1.514-.614s-1.107.215-1.514.614c-.378.4-.592.921-.592 1.536 0 .614.185 1.106.592 1.535.379.4.9.614 1.514.614s1.107-.215 1.513-.614c.379-.4.565-.921.565-1.514.028-.636-.158-1.157-.565-1.557zm-.872 2.242c-.142.186-.357.286-.614.286s-.47-.093-.614-.286c-.142-.185-.235-.428-.235-.735 0-.286.071-.521.235-.707.143-.186.357-.285.614-.285s.472.092.614.285c.143.186.236.428.236.707-.021.286-.093.55-.236.735z" transform="translate(-464 -50) translate(464 50) translate(3 3) translate(7.411 6.069)"/>
                            <path d="M4.091 2.463c.428-.564.664-.942.664-1.135 0-.45-.285-.685-.85-.685H.907C.67.643.478.693.364.807c-.121.121-.186.257-.186.428 0 .186.072.329.186.429.122.12.307.164.543.164h2.056L.321 5.226c-.164.215-.257.429-.257.593 0 .493.329.735.993.735h3.091c.493 0 .736-.214.736-.614 0-.428-.236-.614-.736-.614h-2.27L4.09 2.463z" transform="translate(-464 -50) translate(464 50) translate(3 3) translate(7.411 6.069)"/>
                        </g>
                        <g fill="#39B54A">
                            <path d="M2.62 2.313h-.778V3.92h.778c.236 0 .429-.072.564-.236.143-.143.215-.357.215-.564 0-.236-.072-.428-.215-.564-.135-.171-.32-.243-.564-.243zM6.476 3.798c-.236 0-.429.093-.564.257-.143.186-.214.4-.214.664 0 .265.07.493.214.664.143.186.328.257.564.257.235 0 .428-.092.564-.257.143-.185.214-.4.214-.664 0-.257-.071-.492-.214-.664-.143-.164-.329-.257-.564-.257z" transform="translate(-464 -50) translate(464 50) translate(3 3) translate(7.411 6.069) translate(0 7.497)"/>
                            <path d="M11.91.021H.734C.357.021.05.328.05.707v6.54c0 .378.307.685.685.685h8.81c-.092-.093-.142-.185-.142-.307 0-.093.022-.185.071-.307l.429-.92-1.157-2.885c-.021-.072-.05-.164-.05-.257 0-.122.05-.236.164-.307.093-.093.215-.143.329-.143.257 0 .428.121.521.378l.707 1.964.757-1.964c.093-.235.257-.378.521-.378.121 0 .236.05.328.143.093.093.165.185.165.307 0 .093-.022.185-.05.257l-1.7 4.134c-.05.121-.092.214-.164.285h1.628c.378 0 .685-.307.685-.685V.707c0-.4-.307-.686-.678-.686zM4.02 4.412c-.357.329-.8.472-1.321.472h-.85v1.228c0 .185-.05.328-.164.428-.093.093-.236.164-.4.164-.164 0-.307-.05-.4-.164-.092-.093-.164-.257-.164-.428V1.863c0-.4.186-.592.593-.592h1.35c.563 0 1.013.164 1.391.493.357.328.543.778.543 1.299-.014.593-.2 1.021-.578 1.35zM8.39 6.09c0 .164-.05.286-.165.4-.121.121-.236.164-.4.164-.235 0-.428-.121-.542-.357-.236.286-.564.429-.993.429-.492 0-.92-.186-1.25-.564-.328-.379-.52-.85-.52-1.414s.164-1.014.52-1.414c.33-.378.758-.564 1.25-.564.429 0 .736.143.993.429.121-.236.285-.357.542-.357.164 0 .307.05.4.164.121.121.164.235.164.4V6.09z" transform="translate(-464 -50) translate(464 50) translate(3 3) translate(7.411 6.069) translate(0 7.497)"/>
                        </g>
                    </g>
                </g>
            </g>
        </g>
    </g>
</svg>
