<svg xmlns="http://www.w3.org/2000/svg" width="32" height="32" viewBox="0 0 32 32">
    <g fill="none" fill-rule="evenodd">
        <g>
            <g>
                <g>
                    <path fill="#242424" fill-rule="nonzero" d="M2.18 0c.875 0 1.585.71 1.585 1.585l-.001.297h7.9c1.084 0 1.609.306 2.425 1.34l.147.19 1.61 2.235h14.416c.96 0 1.738.793 1.738 1.772v11.515c0 .979-.778 1.772-1.738 1.772H11.15c-.96 0-1.737-.793-1.737-1.772l-.001-5.251h-1.38c-.828 0-1.617-.377-2.35-.993-.166-.14-.321-.285-.465-.433l-.25-.271-.06-.07H3.731c-.15.72-.788 1.26-1.551 1.26h-.595C.71 13.176 0 12.466 0 11.591V1.585C0 .71.71 0 1.585 0h.595zm28.016 6.588H12.167l2.975 2.708c.787.716.335 1.666-.674 2.155-.876.425-1.951.438-2.806-.092l-.168-.113-1.142-1.039v8.68c0 .484.387.878.864.878h18.98c.477 0 .863-.394.863-.879V7.466c0-.484-.386-.878-.863-.878zM3.764 10.975H5.37l.172.233.101.122.07.08c.17.19.362.382.573.56.522.438 1.058.713 1.574.764l.17.008h1.381v-2.628h-.626c-1.04 0-1.778-.358-2.219-.979l-.09-.137c-.239-.395-.334-.793-.354-1.185l-.004-.168h.94c0 .29.057.591.224.866.23.382.635.62 1.312.657l.19.005h1.83l1.474 1.344c.533.388 1.327.399 1.97.087.5-.243.608-.47.451-.612l-3.22-2.93.004-1.15v-.265l3.446.002-1.21-1.678c-.734-.963-1.029-1.157-1.865-1.157h-7.9v8.161zM2.18.793h-.595c-.404 0-.737.302-.786.693l-.006.1V11.59c0 .404.302.738.693.787l.1.006h.594c.404 0 .737-.302.786-.693l.006-.1V1.585c0-.404-.302-.737-.693-.786l-.1-.006z" transform="translate(-308 -50) translate(308 56)"/>
                    <g fill="#0D5CB6" transform="translate(-308 -50) translate(308 56) translate(16 8.47)">
                        <circle cx="4.706" cy="4.706" r="4.706"/>
                    </g>
                </g>
                <g fill="#FFF" fill-rule="nonzero">
                    <path d="M2.77 2.67l-1.544-.372c-.23-.055-.39-.234-.39-.434 0-.25.24-.452.536-.452h.965c.215 0 .42.057.591.162.079.047.19.032.258-.026l.298-.252c.092-.077.077-.203-.026-.27-.32-.207-.71-.32-1.121-.32H2.3v-.53C2.3.08 2.207 0 2.09 0h-.418c-.115 0-.209.079-.209.176v.53h-.092c-.8 0-1.442.58-1.366 1.268.054.489.498.885 1.058 1.02l1.475.355c.229.055.39.234.39.434 0 .25-.241.452-.536.452h-.965c-.215 0-.42-.056-.592-.161-.078-.048-.188-.032-.257.025l-.298.252c-.092.077-.077.203.025.27.321.208.711.32 1.122.32h.036v.53c0 .097.094.176.21.176h.418c.115 0 .209-.079.209-.176v-.53h.035c.597 0 1.16-.3 1.352-.776.266-.654-.19-1.319-.918-1.495z" transform="translate(-308 -50) translate(308 56) translate(18.824 10.353)"/>
                </g>
            </g>
        </g>
    </g>
</svg>
